<?xml version="1.0" encoding="UTF-8"?>
<svg xmlns="http://www.w3.org/2000/svg" width="381.08" height="135.3" viewBox="0 0 381.08 135.3">
  <title>logo-light</title>
  <path d="M80.08,72.86C71.69,93.11,46.72,100.7,46.72,100.7s24.41-21.43,12.3-40a77.93,77.93,0,0,1-8.39-16.2,156.18,156.18,0,0,0,14.54,14c1.49,1.35,3,2.53,4.47,3.88A87.34,87.34,0,0,1,80.08,72.86Z" fill="#fff"></path>
  <path d="M49.76,129.73,9,108.3A15.93,15.93,0,0,1,0,94.12V42.32c0-5.91,3.35-11.14,9-14.18l31.31-16.2a31.67,31.67,0,0,0-.38,12.66v.16c0,.17.19.51.19.68v.67a28.9,28.9,0,0,0-3.17,3.38c-9.5,12.32-8.76,15.86-8.94,17s-.75,7.77-2.61,9.12S10.62,65.1,9.51,67.12c-2.24,3.55,6.7,6.92,6.15,10s-1.87,1.52-2.8,3.37c-.75,1.86,1.49,3.72,2.61,4.9,0,0-2.42,1.85-1.86,3.88.74,2,4.28,1.35,4.84,3.71.37,2.2-5.22,8.78.37,13,5.6,4,22.56.5,26.47,3.2,3.91,2.87.93,10.3,3.35,17.55A10,10,0,0,1,49.76,129.73Z" fill="#fff"></path>
  <path d="M89,96.49a45.15,45.15,0,0,1-21.44,13.16A49.27,49.27,0,0,0,83.06,85a38.79,38.79,0,0,0,1.12-6.41A38.71,38.71,0,0,1,87,84.17,40.31,40.31,0,0,1,89.21,94,10.56,10.56,0,0,0,89,96.49Z" fill="#fff"></path>
  <path d="M133,103.24a16.63,16.63,0,0,1-6,5.06l-31.5,16.54-18.08,9.45a7.67,7.67,0,0,1-2.42,1,92.18,92.18,0,0,0,12.86-20.93,46.75,46.75,0,0,0,3.72-20.75,32,32,0,0,0-2.23-10.3,33.6,33.6,0,0,0-4.85-8.6,23.47,23.47,0,0,0-3.35-4L79,68.14c-.37-.34-.74-.85-1.12-1.19-.74-.67-1.49-1.51-2.23-2.19-.38-.34-.38-.34-.38-.51a19.13,19.13,0,0,0-2-1.85c-.56-.51-1.11-1-1.86-1.69-7.27-6.41-15.1-12.66-21.06-20.25A37.24,37.24,0,0,1,43,25.1c0-.34-.19-.5-.19-.84a25.4,25.4,0,0,1,.94-14l3.72-2a37.68,37.68,0,0,0,4.48,8.6c.37.68.93,1.35,1.3,2A58,58,0,0,0,64.05,30.33c7.64,6.42,16.77,11.14,25.53,15.87,2,1,4.1,2.19,6.15,3.2,9.88,5.4,20.13,11.65,27.22,20.42.18.34.37.51.55.85,6,7.76,9.14,17.55,9.51,28.18Z" fill="#c6ac73"></path>
  <path d="M136,42.32v51.8a13.91,13.91,0,0,1-.74,4.73,49.75,49.75,0,0,0-9.88-29.36c-.19-.34-.37-.51-.56-.85C117.73,59.7,107.29,53.28,97,47.55c-10.81-5.91-22-11.31-31.31-18.9a60.91,60.91,0,0,1-10.44-11c-.37-.68-.93-1.18-1.3-1.86a56.83,56.83,0,0,1-4.48-8.61l9.7-5.06a20,20,0,0,1,18.07,0l49.58,26C132.45,31.18,136,36.58,136,42.32Z" fill="#fff"></path>
  <path d="M194.89,99.35q-17,0-25.21-9.64A26.86,26.86,0,0,1,165,80.52a46.61,46.61,0,0,1-1.82-13.93,38.16,38.16,0,0,1,2.69-14.69,23.7,23.7,0,0,1,7.32-10.06q9-6.65,21.75-6.64a52.81,52.81,0,0,1,8,.59A36.36,36.36,0,0,1,208.72,37l1.91.63-.27.91a47.21,47.21,0,0,0-15.47-2.45,22.15,22.15,0,0,0-16.1,6.28Q173.87,47,171.87,56a55.92,55.92,0,0,0-1.18,12.46,42.4,42.4,0,0,0,2.09,13.61q2.08,6.23,4.78,9.23a19.6,19.6,0,0,0,6.5,4.78,21.89,21.89,0,0,0,6.1,2,46.74,46.74,0,0,0,5.41.27,64.12,64.12,0,0,0,8.42-.73V79H193v-.91h22.48V79h-3.92V96.9A50.14,50.14,0,0,1,194.89,99.35Z" fill="#fff"></path>
  <path d="M231,99q-8,0-10.1-4.19a3.62,3.62,0,0,1-.46-1.64V30.83h6.37v61.7a6.69,6.69,0,0,0,1,4,3.17,3.17,0,0,0,2.14,1.5l1,.18h2.82V99Z" fill="#fff"></path>
  <path d="M276.43,99q-6.19,0-8.47-2.37c-1.39-1.33-2.09-2.48-2.09-3.46V91.25q-4.46,8.1-14.29,8.1-11.46,0-13-10.37a13.7,13.7,0,0,1-.18-2.23,9.85,9.85,0,0,1,.36-2.5,7,7,0,0,1,2.1-3q3.45-3.27,15.19-4Q259,77,261.41,77c1.64,0,3.13.06,4.46.18V62c-.12-.06-.12-.35,0-.86a3.38,3.38,0,0,0-.32-2,12.24,12.24,0,0,0-1.32-2.42,6.36,6.36,0,0,0-2.91-2,14.44,14.44,0,0,0-5.46-.87A30.45,30.45,0,0,0,248,55.08a30.89,30.89,0,0,0-6.6,2.41l-.36-.63a39,39,0,0,1,16.47-3.74q9.38,0,12.38,3.37A8.26,8.26,0,0,1,272.24,62V92.53a6.69,6.69,0,0,0,1.05,4,3.15,3.15,0,0,0,2.14,1.5l1,.18h2.82V99ZM253,98.62a13,13,0,0,0,8.69-3.32q3.87-3.31,4.14-6.41v-11c-1.64-.12-3.29-.19-5-.19a45.38,45.38,0,0,0-5,.28c-4.61.54-7.61,1.58-9,3.09a9,9,0,0,0-2.09,6.28c0,.49,0,1,.09,1.64Q245.77,98.63,253,98.62Z" fill="#fff"></path>
  <path d="M339.13,64q0-5.55-1.46-7.82t-5.55-2.28a12.92,12.92,0,0,0-9.69,4.55Q318.2,63,318.2,66.59V99h-6.37V64q0-5.55-1.46-7.82t-6.19-2.28q-4.73,0-9,4.37t-4.6,8.1V99h-6.37V53.49h6.37V63.77A18,18,0,0,1,296,56.49a13.09,13.09,0,0,1,8.74-3.37,27.38,27.38,0,0,1,7.69.87,7,7,0,0,1,4.05,2.68,9.54,9.54,0,0,1,1.45,3.19,19.79,19.79,0,0,1,.28,3.82,17.91,17.91,0,0,1,5.28-7.23,12.24,12.24,0,0,1,8.19-3.33,27.41,27.41,0,0,1,7,.73,13.52,13.52,0,0,1,4,1.64,5.58,5.58,0,0,1,2,2.64,10.68,10.68,0,0,1,.78,2.82q.09,1.09.09,3.09V92.53a6.77,6.77,0,0,0,1,4,3.17,3.17,0,0,0,2.14,1.5l1,.18h2.82V99H347a8.63,8.63,0,0,1-5.68-1.64,4.81,4.81,0,0,1-2-3.28l-.09-1.54Z" fill="#fff"></path>
  <path d="M372.62,57.4V55.49c-2.74,1.09-5.22,3.29-7.47,6.6a18.25,18.25,0,0,0-3.55,9.33V99h-6.37V53.49h6.37V68a25.42,25.42,0,0,1,5.55-10q4.1-4.68,9.29-4.87h.36a4.2,4.2,0,0,1,4.28,4.28,4,4,0,0,1-1.23,3,4.23,4.23,0,0,1-3.05,1.19,4.05,4.05,0,0,1-4.18-4.19Z" fill="#fff"></path>
</svg>
